<svg viewBox="0 0 50 52" fill="none" xmlns="http://www.w3.org/2000/svg">
<path d="M45.5697 2H39.4302C37.5358 2 36 3.5357 36 5.4302V11.5697C36 13.4642 37.5358 15 39.4302 15H45.5697C47.4642 15 49 13.4642 49 11.5697V5.4302C49 3.5357 47.4642 2 45.5697 2Z" fill="#17E444"/>
<path d="M21.5268 15.3659H26.9181C29.149 15.4927 31.2712 16.3716 32.9384 17.8594L33.1406 18.0841C34.6361 19.7464 35.5162 21.8714 35.634 24.1044V29.4732C35.634 30.4085 36.0056 31.3056 36.667 31.967C37.3284 32.6284 38.2255 33 39.1609 33H45.4732C46.4085 33 47.3056 32.6284 47.967 31.967C48.6284 31.3056 49 30.4085 49 29.4732V23.1609C49 22.2255 48.6284 21.3285 47.967 20.6671C47.3056 20.0057 46.4085 19.6341 45.4732 19.6341H40.1043C37.8714 19.5162 35.7464 18.6361 34.084 17.1406L33.8594 16.9384C32.3686 15.2731 31.4892 13.1499 31.3659 10.9181V5.5268C31.3659 4.5915 30.9944 3.6944 30.333 3.033C29.6715 2.3716 28.7745 2 27.8391 2H21.5268C20.5914 2 19.6944 2.3716 19.033 3.033C18.3716 3.6944 18 4.5915 18 5.5268V11.8392C18 12.7745 18.3716 13.6715 19.033 14.3329C19.6944 14.9943 20.5914 15.3659 21.5268 15.3659Z" fill="#17E444"/>
<path d="M46.4841 37.4669H41.1435C38.9204 37.3226 36.814 36.4003 35.1798 34.8556L34.579 34.2426C33.0976 32.5622 32.2257 30.4142 32.109 28.1571V22.7075C32.1031 21.7639 31.7332 20.8606 31.0793 20.1933C30.4253 19.526 29.5401 19.1485 28.6153 19.1426H23.2747C21.0699 19.0479 18.9642 18.182 17.3111 16.6903L16.7103 16.0772C15.2288 14.3969 14.357 12.2489 14.2402 9.9918V4.565C14.2402 3.6195 13.8721 2.7127 13.217 2.0441C12.5618 1.3756 11.6732 1 10.7466 1H4.4936C3.5671 1 2.6784 1.3756 2.0233 2.0441C1.3681 2.7127 1 3.6195 1 4.565V10.9455C1 11.891 1.3681 12.7978 2.0233 13.4663C2.6784 14.1349 3.5671 14.5105 4.4936 14.5105H9.812C12.0577 14.6153 14.1977 15.5144 15.8647 17.0536L16.4655 17.6667C17.9423 19.35 18.8134 21.4962 18.9355 23.752V29.2017C18.9413 30.1453 19.3113 31.0486 19.9652 31.7158C20.6191 32.3831 21.5044 32.7606 22.4291 32.7666H27.7697C29.9572 32.9063 32.0346 33.7942 33.6667 35.287L34.2675 35.9001C35.7443 37.5834 36.6154 39.7297 36.7375 41.9855V47.4351C36.7433 48.3788 37.1133 49.282 37.7672 49.9493C38.4211 50.6166 39.3064 50.994 40.2311 51H46.5063C47.4311 50.994 48.3164 50.6166 48.9703 49.9493C49.6242 49.282 49.9942 48.3788 50 47.4351V41.0318C49.9941 40.0843 49.6211 39.1775 48.9624 38.5096C48.3037 37.8417 47.4127 37.4668 46.4841 37.4669Z" fill="#17E444"/>
<path d="M11.3059 37H4.6941C2.6539 37 1 38.5358 1 40.4303V46.5698C1 48.4643 2.6539 50 4.6941 50H11.3059C13.3461 50 15 48.4643 15 46.5698V40.4303C15 38.5358 13.3461 37 11.3059 37Z" fill="#17E444"/>
<path d="M28.4732 36.634H23.1043C20.8714 36.5161 18.7464 35.6361 17.084 34.1406L16.8594 33.9384C15.3591 32.2613 14.4791 30.1206 14.3659 27.8732V22.4819C14.3548 21.5735 13.9936 20.7044 13.3575 20.0557C12.7214 19.4071 11.8595 19.0289 10.9514 19H4.5268C3.5914 19 2.6944 19.3716 2.033 20.033C1.3716 20.6944 1 21.5914 1 22.5268V28.8391C1 29.7745 1.3716 30.6715 2.033 31.333C2.6944 31.9944 3.5914 32.3659 4.5268 32.3659H9.9181C12.149 32.4927 14.2712 33.3716 15.9384 34.8594L16.1406 35.084C17.6361 36.7464 18.5162 38.8714 18.634 41.1043V46.4731C18.634 46.9382 18.726 47.3986 18.9046 47.8279C19.0833 48.2573 19.3451 48.6471 19.675 48.9749C20.0048 49.3027 20.3963 49.562 20.8268 49.7379C21.2573 49.9138 21.7183 50.0029 22.1833 49.9999H28.4732C29.4085 49.9999 30.3056 49.6284 30.967 48.967C31.6284 48.3056 32 47.4085 32 46.4731V40.1608C32 39.2255 31.6284 38.3284 30.967 37.667C30.3056 37.0056 29.4085 36.634 28.4732 36.634Z" fill="#17E444"/>
</svg>
